<?xml version="1.0" standalone="yes"?>

<svg version="1.1" viewBox="0.0 0.0 608.9816272965879 222.03674540682414" fill="none" stroke="none" stroke-linecap="square" stroke-miterlimit="10" xmlns="http://www.w3.org/2000/svg" xmlns:xlink="http://www.w3.org/1999/xlink"><clipPath id="p.0"><path d="m0 0l608.9816 0l0 222.03674l-608.9816 0l0 -222.03674z" clip-rule="nonzero"></path></clipPath><g clip-path="url(#p.0)"><path fill="#000000" fill-opacity="0.0" d="m0 0l608.9816 0l0 222.03674l-608.9816 0z" fill-rule="evenodd"></path><path fill="#cfe2f3" d="m181.06561 167.06824l0 0c0 -20.838959 16.40683 -37.732285 36.645676 -37.732285l0 0c9.71904 0 19.040009 3.975357 25.9124 11.051529c6.8723907 7.076187 10.733261 16.673538 10.733261 26.680756l0 0c0 20.838974 -16.406815 37.732285 -36.64566 37.732285l0 0c-20.238846 0 -36.645676 -16.89331 -36.645676 -37.732285z" fill-rule="evenodd"></path><path stroke="#000000" stroke-width="1.0" stroke-linejoin="round" stroke-linecap="butt" d="m181.06561 167.06824l0 0c0 -20.838959 16.40683 -37.732285 36.645676 -37.732285l0 0c9.71904 0 19.040009 3.975357 25.9124 11.051529c6.8723907 7.076187 10.733261 16.673538 10.733261 26.680756l0 0c0 20.838974 -16.406815 37.732285 -36.64566 37.732285l0 0c-20.238846 0 -36.645676 -16.89331 -36.645676 -37.732285z" fill-rule="evenodd"></path><path fill="#000000" d="m208.48639 172.76949q-0.9375 0.796875 -1.796875 1.125q-0.859375 0.3125 -1.84375 0.3125q-1.609375 0 -2.484375 -0.78125q-0.875 -0.796875 -0.875 -2.03125q0 -0.734375 0.328125 -1.328125q0.328125 -0.59375 0.859375 -0.953125q0.53125 -0.359375 1.203125 -0.546875q0.5 -0.140625 1.484375 -0.25q2.03125 -0.25 2.984375 -0.578125q0 -0.34375 0 -0.4375q0 -1.015625 -0.46875 -1.4375q-0.640625 -0.5625 -1.90625 -0.5625q-1.171875 0 -1.734375 0.40625q-0.5625 0.40625 -0.828125 1.46875l-1.640625 -0.234375q0.234375 -1.046875 0.734375 -1.6875q0.515625 -0.640625 1.46875 -0.984375q0.96875 -0.359375 2.25 -0.359375q1.265625 0 2.046875 0.296875q0.78125 0.296875 1.15625 0.75q0.375 0.453125 0.515625 1.140625q0.09375 0.421875 0.09375 1.53125l0 2.234375q0 2.328125 0.09375 2.953125q0.109375 0.609375 0.4375 1.171875l-1.75 0q-0.265625 -0.515625 -0.328125 -1.21875zm-0.140625 -3.71875q-0.90625 0.359375 -2.734375 0.625q-1.03125 0.140625 -1.453125 0.328125q-0.421875 0.1875 -0.65625 0.546875q-0.234375 0.359375 -0.234375 0.796875q0 0.671875 0.5 1.125q0.515625 0.4375 1.484375 0.4375q0.96875 0 1.71875 -0.421875q0.75 -0.4375 1.109375 -1.15625q0.265625 -0.578125 0.265625 -1.671875l0 -0.609375zm10.469467 4.9375l0 -1.25q-0.9375 1.46875 -2.75 1.46875q-1.171875 0 -2.171875 -0.640625q-0.984375 -0.65625 -1.53125 -1.8125q-0.53125 -1.171875 -0.53125 -2.6875q0 -1.46875 0.484375 -2.671875q0.5 -1.203125 1.46875 -1.84375q0.984375 -0.640625 2.203125 -0.640625q0.890625 0 1.578125 0.375q0.703125 0.375 1.140625 0.984375l0 -4.875l1.65625 0l0 13.59375l-1.546875 0zm-5.28125 -4.921875q0 1.890625 0.796875 2.828125q0.8125 0.9375 1.890625 0.9375q1.09375 0 1.859375 -0.890625q0.765625 -0.890625 0.765625 -2.734375q0 -2.015625 -0.78125 -2.953125q-0.78125 -0.953125 -1.921875 -0.953125q-1.109375 0 -1.859375 0.90625q-0.75 0.90625 -0.75 2.859375zm15.656967 4.921875l0 -1.25q-0.9375 1.46875 -2.75 1.46875q-1.171875 0 -2.171875 -0.640625q-0.984375 -0.65625 -1.53125 -1.8125q-0.53125 -1.171875 -0.53125 -2.6875q0 -1.46875 0.484375 -2.671875q0.5 -1.203125 1.46875 -1.84375q0.984375 -0.640625 2.203125 -0.640625q0.890625 0 1.578125 0.375q0.703125 0.375 1.140625 0.984375l0 -4.875l1.65625 0l0 13.59375l-1.546875 0zm-5.28125 -4.921875q0 1.890625 0.796875 2.828125q0.8125 0.9375 1.890625 0.9375q1.09375 0 1.859375 -0.890625q0.765625 -0.890625 0.765625 -2.734375q0 -2.015625 -0.78125 -2.953125q-0.78125 -0.953125 -1.921875 -0.953125q-1.109375 0 -1.859375 0.90625q-0.75 0.90625 -0.75 2.859375z" fill-rule="nonzero"></path><path fill="#cfe2f3" d="m350.1181 167.06824l0 0c0 -20.838959 16.40683 -37.732285 36.64569 -37.732285l0 0c9.719025 0 19.039978 3.975357 25.912384 11.051529c6.872406 7.076187 10.733276 16.673538 10.733276 26.680756l0 0c0 20.838974 -16.40683 37.732285 -36.64566 37.732285l0 0c-20.238861 0 -36.64569 -16.89331 -36.64569 -37.732285z" fill-rule="evenodd"></path><path stroke="#000000" stroke-width="1.0" stroke-linejoin="round" stroke-linecap="butt" d="m350.1181 167.06824l0 0c0 -20.838959 16.40683 -37.732285 36.64569 -37.732285l0 0c9.719025 0 19.039978 3.975357 25.912384 11.051529c6.872406 7.076187 10.733276 16.673538 10.733276 26.680756l0 0c0 20.838974 -16.40683 37.732285 -36.64566 37.732285l0 0c-20.238861 0 -36.64569 -16.89331 -36.64569 -37.732285z" fill-rule="evenodd"></path><path fill="#000000" d="m382.48007 173.98824l0 -1.25q-0.9375 1.46875 -2.75 1.46875q-1.171875 0 -2.171875 -0.640625q-0.984375 -0.65625 -1.53125 -1.8125q-0.53125 -1.171875 -0.53125 -2.6875q0 -1.46875 0.484375 -2.671875q0.5 -1.203125 1.46875 -1.84375q0.984375 -0.640625 2.203125 -0.640625q0.890625 0 1.578125 0.375q0.703125 0.375 1.140625 0.984375l0 -4.875l1.65625 0l0 13.59375l-1.546875 0zm-5.28125 -4.921875q0 1.890625 0.796875 2.828125q0.8125 0.9375 1.890625 0.9375q1.09375 0 1.859375 -0.890625q0.765625 -0.890625 0.765625 -2.734375q0 -2.015625 -0.78125 -2.953125q-0.78125 -0.953125 -1.921875 -0.953125q-1.109375 0 -1.859375 0.90625q-0.75 0.90625 -0.75 2.859375zm9.281982 -6.765625l0 -1.90625l1.671875 0l0 1.90625l-1.671875 0zm0 11.6875l0 -9.859375l1.671875 0l0 9.859375l-1.671875 0zm6.863556 0l-3.75 -9.859375l1.765625 0l2.125 5.90625q0.34375 0.953125 0.625 1.984375q0.21875 -0.78125 0.625 -1.875l2.1875 -6.015625l1.71875 0l-3.734375 9.859375l-1.5625 0z" fill-rule="nonzero"></path><path fill="#cfe2f3" d="m12.0131235 167.06824l0 0c0 -20.838959 16.406826 -37.732285 36.64567 -37.732285l0 0c9.719032 0 19.040005 3.975357 25.912403 11.051529c6.8723907 7.076187 10.733261 16.673538 10.733261 26.680756l0 0c0 20.838974 -16.406822 37.732285 -36.645664 37.732285l0 0c-20.238846 0 -36.64567 -16.89331 -36.64567 -37.732285z" fill-rule="evenodd"></path><path stroke="#000000" stroke-width="1.0" stroke-linejoin="round" stroke-linecap="butt" d="m12.0131235 167.06824l0 0c0 -20.838959 16.406826 -37.732285 36.64567 -37.732285l0 0c9.719032 0 19.040005 3.975357 25.912403 11.051529c6.8723907 7.076187 10.733261 16.673538 10.733261 26.680756l0 0c0 20.838974 -16.406822 37.732285 -36.645664 37.732285l0 0c-20.238846 0 -36.64567 -16.89331 -36.64567 -37.732285z" fill-rule="evenodd"></path><path fill="#000000" d="m44.252186 170.42574l1.765625 -0.15625q0.1875 1.28125 0.890625 1.9375q0.71875 0.640625 1.71875 0.640625q1.203125 0 2.03125 -0.90625q0.84375 -0.90625 0.84375 -2.421875q0 -1.421875 -0.8125 -2.25q-0.796875 -0.828125 -2.09375 -0.828125q-0.796875 0 -1.453125 0.375q-0.640625 0.359375 -1.015625 0.953125l-1.578125 -0.203125l1.328125 -7.0l6.765625 0l0 1.609375l-5.4375 0l-0.734375 3.640625q1.234375 -0.84375 2.578125 -0.84375q1.78125 0 3.0 1.234375q1.234375 1.234375 1.234375 3.171875q0 1.84375 -1.078125 3.1875q-1.3125 1.65625 -3.578125 1.65625q-1.859375 0 -3.03125 -1.03125q-1.171875 -1.046875 -1.34375 -2.765625z" fill-rule="nonzero"></path><path fill="#cfe2f3" d="m50.81365 50.498688l0 0c0 -20.838964 16.406826 -37.732285 36.64567 -37.732285l0 0c9.719032 0 19.04 3.9753542 25.9124 11.05153c6.8723984 7.0761757 10.733269 16.673529 10.733269 26.680754l0 0c0 20.838966 -16.40683 37.732285 -36.645668 37.732285l0 0c-20.238846 0 -36.64567 -16.893318 -36.64567 -37.732285z" fill-rule="evenodd"></path><path stroke="#000000" stroke-width="1.0" stroke-linejoin="round" stroke-linecap="butt" d="m50.81365 50.498688l0 0c0 -20.838964 16.406826 -37.732285 36.64567 -37.732285l0 0c9.719032 0 19.04 3.9753542 25.9124 11.05153c6.8723984 7.0761757 10.733269 16.673529 10.733269 26.680754l0 0c0 20.838966 -16.40683 37.732285 -36.645668 37.732285l0 0c-20.238846 0 -36.64567 -16.893318 -36.64567 -37.732285z" fill-rule="evenodd"></path><path fill="#000000" d="m83.06834 53.82494l1.671875 -0.21875q0.28125 1.421875 0.96875 2.046875q0.703125 0.625 1.6875 0.625q1.1875 0 2.0 -0.8125q0.8125 -0.828125 0.8125 -2.03125q0 -1.140625 -0.765625 -1.890625q-0.75 -0.75 -1.90625 -0.75q-0.46875 0 -1.171875 0.1875l0.1875 -1.46875q0.15625 0.015625 0.265625 0.015625q1.0625 0 1.90625 -0.546875q0.859375 -0.5625 0.859375 -1.71875q0 -0.921875 -0.625 -1.515625q-0.609375 -0.609375 -1.59375 -0.609375q-0.96875 0 -1.625 0.609375q-0.640625 0.609375 -0.828125 1.84375l-1.671875 -0.296875q0.296875 -1.6875 1.375 -2.609375q1.09375 -0.921875 2.71875 -0.921875q1.109375 0 2.046875 0.484375q0.9375 0.46875 1.421875 1.296875q0.5 0.828125 0.5 1.75q0 0.890625 -0.46875 1.609375q-0.46875 0.71875 -1.40625 1.15625q1.21875 0.265625 1.875 1.15625q0.671875 0.875 0.671875 2.1875q0 1.78125 -1.296875 3.015625q-1.296875 1.234375 -3.28125 1.234375q-1.796875 0 -2.984375 -1.0625q-1.171875 -1.0625 -1.34375 -2.765625z" fill-rule="nonzero"></path><path fill="#cfe2f3" d="m224.17848 50.498688l0 0c0 -20.838964 16.406815 -37.732285 36.645676 -37.732285l0 0c9.719025 0 19.040009 3.9753542 25.912384 11.05153c6.872406 7.0761757 10.733276 16.673529 10.733276 26.680754l0 0c0 20.838966 -16.40683 37.732285 -36.64566 37.732285l0 0c-20.238861 0 -36.645676 -16.893318 -36.645676 -37.732285z" fill-rule="evenodd"></path><path stroke="#000000" stroke-width="1.0" stroke-linejoin="round" stroke-linecap="butt" d="m224.17848 50.498688l0 0c0 -20.838964 16.406815 -37.732285 36.645676 -37.732285l0 0c9.719025 0 19.040009 3.9753542 25.912384 11.05153c6.872406 7.0761757 10.733276 16.673529 10.733276 26.680754l0 0c0 20.838966 -16.40683 37.732285 -36.64566 37.732285l0 0c-20.238861 0 -36.645676 -16.893318 -36.645676 -37.732285z" fill-rule="evenodd"></path><path fill="#000000" d="m265.1988 55.809315l0 1.609375l-8.984375 0q-0.015625 -0.609375 0.1875 -1.15625q0.34375 -0.921875 1.09375 -1.8125q0.765625 -0.890625 2.1875 -2.0625q2.21875 -1.8125 3.0 -2.875q0.78125 -1.0625 0.78125 -2.015625q0 -0.984375 -0.71875 -1.671875q-0.703125 -0.6875 -1.84375 -0.6875q-1.203125 0 -1.9375 0.734375q-0.71875 0.71875 -0.71875 2.0l-1.71875 -0.171875q0.171875 -1.921875 1.328125 -2.921875q1.15625 -1.015625 3.09375 -1.015625q1.953125 0 3.09375 1.09375q1.140625 1.078125 1.140625 2.6875q0 0.8125 -0.34375 1.609375q-0.328125 0.78125 -1.109375 1.65625q-0.765625 0.859375 -2.5625 2.390625q-1.5 1.265625 -1.9375 1.71875q-0.421875 0.4375 -0.703125 0.890625l6.671875 0z" fill-rule="nonzero"></path><path fill="#000000" fill-opacity="0.0" d="m85.30446 167.06824l95.74803 0" fill-rule="evenodd"></path><path stroke="#000000" stroke-width="1.0" stroke-linejoin="round" stroke-linecap="butt" d="m85.30446 167.06824l89.74803 0" fill-rule="evenodd"></path><path fill="#000000" stroke="#000000" stroke-width="1.0" stroke-linecap="butt" d="m175.05249 168.71997l4.538101 -1.6517334l-4.538101 -1.6517334z" fill-rule="evenodd"></path><path fill="#000000" fill-opacity="0.0" d="m254.35695 167.06824l95.74803 0" fill-rule="evenodd"></path><path stroke="#000000" stroke-width="1.0" stroke-linejoin="round" stroke-linecap="butt" d="m254.35695 167.06824l89.74803 0" fill-rule="evenodd"></path><path fill="#000000" stroke="#000000" stroke-width="1.0" stroke-linecap="butt" d="m344.10498 168.71997l4.5381165 -1.6517334l-4.5381165 -1.6517334z" fill-rule="evenodd"></path><path fill="#000000" fill-opacity="0.0" d="m286.73654 77.17944l74.11023 63.2126" fill-rule="evenodd"></path><path stroke="#000000" stroke-width="1.0" stroke-linejoin="round" stroke-linecap="butt" d="m286.73654 77.17944l69.54529 59.31888" fill-rule="evenodd"></path><path fill="#000000" stroke="#000000" stroke-width="1.0" stroke-linecap="butt" d="m355.2099 137.75502l4.5246277 1.6883087l-2.3808289 -4.2016907z" fill-rule="evenodd"></path><path fill="#000000" fill-opacity="0.0" d="m113.37172 77.17944l78.4252 63.2126" fill-rule="evenodd"></path><path stroke="#000000" stroke-width="1.0" stroke-linejoin="round" stroke-linecap="butt" d="m113.37172 77.17944l73.75375 59.447296" fill-rule="evenodd"></path><path fill="#000000" stroke="#000000" stroke-width="1.0" stroke-linecap="butt" d="m186.08891 137.91273l4.569809 1.5618896l-2.4967194 -4.1338806z" fill-rule="evenodd"></path><path fill="#cfe2f3" d="m495.81104 135.46194l95.74805 0l0 63.2126l-95.74805 0z" fill-rule="evenodd"></path><path stroke="#000000" stroke-width="1.0" stroke-linejoin="round" stroke-linecap="butt" d="m495.81104 135.46194l95.74805 0l0 63.2126l-95.74805 0z" fill-rule="evenodd"></path><path fill="#000000" d="m531.34265 169.06636q0 -2.734375 1.53125 -4.0625q1.265625 -1.09375 3.09375 -1.09375q2.03125 0 3.3125 1.34375q1.296875 1.328125 1.296875 3.671875q0 1.90625 -0.578125 3.0q-0.5625 1.078125 -1.65625 1.6875q-1.078125 0.59375 -2.375 0.59375q-2.0625 0 -3.34375 -1.328125q-1.28125 -1.328125 -1.28125 -3.8125zm1.71875 0q0 1.890625 0.828125 2.828125q0.828125 0.9375 2.078125 0.9375q1.25 0 2.0625 -0.9375q0.828125 -0.953125 0.828125 -2.890625q0 -1.828125 -0.828125 -2.765625q-0.828125 -0.9375 -2.0625 -0.9375q-1.25 0 -2.078125 0.9375q-0.828125 0.9375 -0.828125 2.828125zm15.735107 4.921875l0 -1.453125q-1.140625 1.671875 -3.125 1.671875q-0.859375 0 -1.625 -0.328125q-0.75 -0.34375 -1.125 -0.84375q-0.359375 -0.5 -0.515625 -1.234375q-0.09375 -0.5 -0.09375 -1.5625l0 -6.109375l1.671875 0l0 5.46875q0 1.3125 0.09375 1.765625q0.15625 0.65625 0.671875 1.03125q0.515625 0.375 1.265625 0.375q0.75 0 1.40625 -0.375q0.65625 -0.390625 0.921875 -1.046875q0.28125 -0.671875 0.28125 -1.9375l0 -5.28125l1.671875 0l0 9.859375l-1.5 0zm7.5788574 -1.5l0.234375 1.484375q-0.703125 0.140625 -1.265625 0.140625q-0.90625 0 -1.40625 -0.28125q-0.5 -0.296875 -0.703125 -0.75q-0.203125 -0.46875 -0.203125 -1.984375l0 -5.65625l-1.234375 0l0 -1.3125l1.234375 0l0 -2.4375l1.65625 -1.0l0 3.4375l1.6875 0l0 1.3125l-1.6875 0l0 5.75q0 0.71875 0.078125 0.921875q0.09375 0.203125 0.296875 0.328125q0.203125 0.125 0.578125 0.125q0.265625 0 0.734375 -0.078125z" fill-rule="nonzero"></path><path fill="#000000" fill-opacity="0.0" d="m423.40945 167.06824l72.409454 0" fill-rule="evenodd"></path><path stroke="#000000" stroke-width="1.0" stroke-linejoin="round" stroke-linecap="butt" d="m423.40945 167.06824l66.409454 0" fill-rule="evenodd"></path><path fill="#000000" stroke="#000000" stroke-width="1.0" stroke-linecap="butt" d="m489.8189 168.71997l4.538086 -1.6517334l-4.538086 -1.6517334z" fill-rule="evenodd"></path></g></svg>

